<svg version="1" xmlns="http://www.w3.org/2000/svg" width="1365.333" height="1365.333" viewBox="0 0 1024.000000 1024.000000"><path d="M608.8 186.5c-.2.1-4.1.5-8.8.9-34 2.6-72.3 19.8-100 44.6-3.9 3.5-22.9 21.1-27 25-23.3 22.1-36.6 32.7-51.5 41-13.6 7.5-20.1 10-61 23.7-33.1 11-40.3 14.1-39.1 16.2.2.3.7 4.9 1.1 10.1.4 5.2.8 10.4.9 11.5 1.8 14.7 3.9 26.2 7.2 39.7 1.3 5.4 2.1 6.8 3.5 6.8 1.1 0 1.9-.5 1.9-1 0-.6.4-1 .8-1 .8 0 74.3-42.2 81.7-46.8 1.7-1.1 11.1-6.6 21-12.3 22.1-12.7 38.1-21.9 50-28.9 5-2.8 10.8-6.2 13-7.5 2.2-1.2 9.5-5.4 16.2-9.4 6.7-3.9 12.6-7.1 13.2-7.1.6 0 1.1-.4 1.1-.8s1.9-1.8 4.3-3c2.3-1.2 6.7-3.6 9.8-5.4 3-1.8 12.2-7.1 20.3-11.8 8.1-4.7 15.9-9.2 17.4-10.1 4.6-2.7 22.5-13.1 26.1-15.1l18.5-10.7c8.3-4.8 23.9-13.9 34.6-20.1 25.4-14.7 24-13.6 20.4-15.1-18.3-7-32.8-10.7-49.4-12.5-5.7-.6-25.8-1.3-26.2-.9zM692.4 211.8c-4.3 2.5-9.2 5.2-10.7 6.1-1.6.9-3.6 2-4.6 2.6-.9.5-5.5 3.2-10.1 5.9-4.7 2.7-12.3 7.2-17 9.9-4.7 2.7-11.4 6.6-15 8.7-7.8 4.5-20.9 12.1-38.5 22.3-7.1 4.1-28.7 16.6-48 27.8-19.2 11.1-43.1 24.9-53 30.7-9.9 5.7-19.8 11.4-22 12.7-2.2 1.2-10.3 5.9-17.9 10.4-7.6 4.4-14.1 8.1-14.3 8.1-.2 0-2 1.1-4.1 2.3-3.9 2.5-33.7 19.8-59.7 34.7-1.6.9-11.2 6.5-21.3 12.3-10.1 5.9-18.9 10.7-19.7 10.7-1.3 0 1.6 9.4 8 25.5 3.1 8 16.7 36.1 18.8 38.9 1.3 1.7 2 1.5 14.8-5.9 7.4-4.3 15.4-8.9 17.9-10.3 2.5-1.3 5-2.8 5.5-3.2.6-.4 2.8-1.8 5-3 7.1-4 41.9-24.2 44.5-25.8 1.4-.9 2.7-1.7 3-1.7.3 0 1.6-.8 3-1.7 1.4-.9 24.1-14.1 50.5-29.3 26.4-15.3 49.5-28.6 51.3-29.6 1.7-1.1 4.7-2.7 6.5-3.8 29.7-17.1 43.8-25.3 51.2-29.6 5-2.9 10.6-6.2 12.5-7.2 1.9-1.1 20.4-11.8 41-23.8s39.1-22.6 41-23.7c1.9-1.1 10.3-5.9 18.5-10.7 8.3-4.8 18-10.5 21.8-12.6 3.7-2.2 6.7-4.2 6.7-4.6 0-.8-10.2-12.3-14-15.9-14.6-13.5-24.1-20.6-37.6-28.3l-6.1-3.4-7.9 4.5zM762.5 265.9c-.6.5-2.6 1.8-4.5 2.9-1.9 1-12 6.9-22.5 12.9-10.4 6-23.5 13.6-29 16.8-17.7 10.2-54.4 31.5-76 44.1-11.5 6.7-22.7 13.1-24.8 14.3-2.1 1.2-15.1 8.7-29 16.8-22 12.8-34.5 20-47.7 27.5-1.9 1.1-12 7-22.5 13.1-10.4 6-20.3 11.8-22 12.7-7.1 4-92.2 53.3-105.7 61.2l-8.6 5.1 2.6 4.1c10.1 15.6 22.1 30.9 35 44.7 3.5 3.8 7.1 7.6 8.1 8.6.9 1 2.6 2.6 3.7 3.6 2.3 1.9-3.1 4.9 65.9-35.8 11-6.5 21.4-12.5 23-13.5 1.7-1 8.2-4.8 14.5-8.5 6.3-3.7 12.9-7.6 14.5-8.5 25.6-14.9 33.6-19.6 36.5-21.5 1.9-1.3 5.2-3.2 7.2-4.2 2-1.1 4.9-3.5 6.5-5.3 13.3-16 33.3-35.1 51.3-49.1 10.5-8.1 29.5-21 37-25 2.5-1.3 4.7-2.6 5-2.9.3-.3 4.6-2.6 9.5-5.2 11.4-5.8 26.2-12.1 38.7-16.4 8.3-2.8 12.5-4.1 23.8-7 5.9-1.5 20.6-4.3 26-5 3.6-.4 7-.8 7.5-.9.6-.1 2.7-.3 4.9-.3l3.8-.2-.6-6.4c-1.9-19.3-12.8-48.9-25.2-68.3-3.3-5.2-5-6.2-6.9-4.4z"/><path d="M303 344.2c-8.6 4.8-23 14.9-24.1 16.9-.9 1.8-.6 41.8.4 48.4.3 1.6.8 5.7 1.1 9 .7 6.7 2 14.3 4.2 25.5 11.4 56.9 38.3 111.5 76.9 156 5.6 6.5 27 27.6 34.5 34.2 26.8 23.2 61.5 44.3 96.3 58.7 9 3.7 37.6 13.4 43 14.5 1.2.3 5.1 1.2 8.7 2.1 7.5 1.9 6.9 1.8 22 4.4 6.3 1.2 13.8 2.3 16.5 2.6 2.8.3 8.4.8 12.5 1.3 9.9.9 54.5.9 64-.1 44.2-4.7 85.5-16.3 121.1-34l12.4-6.2 1.2-5c2.5-9.8 4.4-22.2 4.9-32.8l.6-10.7-8.8 3.6c-4.9 2-10.2 4.2-11.9 4.9-13.1 5.5-48.7 15.1-66.5 17.9-14.1 2.2-14.8 2.3-35 4.1-8.2.8-36.4.8-45.5.1-13.7-1.1-23.9-2.2-28.5-3.1-1.4-.2-4.3-.7-6.5-1-21.2-2.9-55.1-12.8-79-23-15.4-6.6-41.6-20-42.3-21.8-.2-.4-.8-.7-1.4-.7-1.2 0-22.7-14.3-31.5-21.1-29.6-22.6-55.7-50.4-76-80.9-6.3-9.4-8.8-13.6-14.5-23.5-13.8-24.1-28.8-63.7-34.2-90.5-.3-1.4-.7-3.6-1-5-.3-1.4-.8-3.6-1.1-5-1.1-5-1.4-7.3-2.1-12.9-.3-3.1-.8-6.5-1-7.6-.5-2.3-1.7-16.8-1.8-20.3 0-2.8-.9-2.7-7.6 1z"/><path d="M782 357.6c-12.7 1.7-16.4 2.4-19.8 3.4-1.8.5-3.2.7-3.2.5 0-.2-1.8.2-4 1s-4.1 1.4-4.3 1.3c-1.3-.6-28.8 9-38.4 13.4-2.3 1.1-4.5 1.9-4.8 1.9-.7-.1-18.2 9.1-27 14.2-29.8 17.1-65.2 47.4-87.1 74.6-1 1.3-2.4 2.9-3.1 3.5-4.8 5.2-31.3 43.2-31.3 45.1 0 .3-1.1 2.2-2.4 4.3-1.3 2.1-4.4 7.8-6.9 12.7-13.2 26.1-22.1 50-28.2 75.9-2.9 12.4-3.3 11.4 5.5 14.9 22 8.8 49.9 16.6 72.5 20.3l3 .4 2.8-11.5c6.8-28.1 19.6-59 34.4-83.4 3.5-5.7 6.3-10.5 6.3-10.8 0-.2.4-.9 1-1.6.5-.7 4-5.5 7.7-10.7 25.8-36.8 60.2-68.6 97.3-90.4 6.9-4 24.8-13 31.1-15.6l5.6-2.2 1.3-6.7c.7-3.6 1.3-6.7 1.2-6.8 0-.2.3-1.7.8-3.4.5-1.8 1.2-4.8 1.5-6.8.3-2 .7-4.8 1-6.1 1.6-8.4 2.4-31 1-31.8-1.5-1-4-.9-13.5.4z"/><path d="M263.3 374.7c-4.2 3.9-13.6 15.3-17.7 21.6-4.2 6.2-4.8 11.1-4.8 35.7 0 27.5 2.2 48.7 7.3 71.2 1.1 5.1 2.2 10.1 2.4 11 3.8 18.2 17.1 53.4 28.5 75.3 12.5 24 31 51 47 68.5 1.7 1.9 4.2 4.7 5.5 6.2 1.9 2.3 6.9 4.1 30.2 11.3 46.2 14.3 55.7 18 72.3 28.2 6.9 4.3 20.9 14.4 24.1 17.5.8.7 5.2 4.7 9.9 8.8 4.7 4.1 9 7.9 9.6 8.5.6.5 4.4 3.9 8.4 7.5s8.1 7.2 8.9 8.1c.9.8 4.8 4.3 8.7 7.7 7.3 6.4 7.6 6.5 23.9 9.7 11.9 2.2 26.4 4 41 5 9 .7 39.2.7 47 0 14-1.1 19.1-1.6 21.5-2 1.4-.3 4.2-.7 6.2-1 5.5-.6 10.4-1.5 18.3-3.1 3.9-.8 7.9-1.6 9-1.8 11.2-2.1 46.2-12.8 52.7-16.2 1.5-.8 2.9-1.4 3-1.4.9.3 12.7-4.9 26.5-11.7 12.9-6.2 14.3-7.7 24.8-26 4.7-8.2 9.6-19.3 8.6-19.3-.5 0-4.8 1.8-9.5 4s-10.2 4.6-12.3 5.4c-11.9 4.3-19 6.9-20.8 7.6-12.5 5.2-53.3 14.5-72.5 16.5-3 .4-6.6.8-8 1.1-12.5 2.1-61.7 2-75.5-.2-1.8-.2-4.7-.6-6.6-.8-9.9-1-31.7-5.1-44.4-8.2-34.2-8.5-75-25.9-103.5-44.2-6.4-4.1-23-15.2-24.5-16.4-.5-.4-4.8-3.8-9.5-7.5-12.4-9.8-15-12.2-31-28.2-36.1-36.1-63.3-78.8-80.2-125.6-6.7-18.7-11.9-37.4-15.3-55.5-.3-1.4-.7-3.6-.9-5-.7-3.3-1.3-7.8-2.5-18-1.9-16.1-2.2-19.5-2.4-33.2-.1-7.6-.3-13.8-.3-13.8-.1 0-1.5 1.2-3.1 2.7z"/><path d="M225.1 435.7c-7.9 22.3-10.5 37.5-10.6 62.3 0 21.3 1.1 30.3 6 48.8 5.3 19.8 14.4 39.3 26.5 56.4 7.8 11.2 25.7 29.5 36 37 8 5.8 23.9 15.8 25.2 15.8.4 0-3.2-5.3-8.1-11.8-28.6-38-49.3-81.2-60.5-126.7-3.4-13.8-4.1-17.1-5-23-2.1-12.9-2.6-16.7-3.1-21.5-.4-3-.8-7.1-1.1-9-.2-1.9-.7-10.9-1-20-.4-9.1-.8-16.6-.9-16.8-.1-.1-1.6 3.7-3.4 8.5zM782.6 433.7c-1.7.5-15.6 7.5-24.1 12.2-7.9 4.5-27 17.5-34.9 24-20.8 16.8-43.4 40.4-56.1 58.5-1.1 1.6-3.4 4.7-5 7-10.1 13.6-25.3 41.6-33.3 61.2-6.1 14.8-12.8 36.5-14.7 47.1-.5 2.9-.3 3.3 1.7 3.3 1.3 0 4.8.4 7.8.8 11.5 1.4 58.1.7 70.5-1.1 1.6-.3 2.6-2.3 4.8-9.3 3.2-10 8.3-24.4 10.2-28.9 9-21.1 17.3-36.4 29-54 5.2-7.7 10.6-15.6 12.2-17.4 7.7-9.5 15.3-18.2 20.6-23.8l6-6.2v-13.4c-.1-11.4 1.9-30.6 4.1-40.2.2-1.1.9-4 1.5-6.5.5-2.5 1.2-5.7 1.5-7.3.2-1.5.8-3.6 1.1-4.7.6-2 .4-2.1-2.9-1.3zM556.5 489.9c-17.2 10.3-36.2 21.4-40 23.6-4 2.3-33.7 19.7-36.5 21.4-.8.5-7.8 4.7-15.5 9.2-7.7 4.5-18.6 10.9-24.1 14.2l-10.1 6 6.1 5.1c20.1 16.9 37.6 28.7 60.9 41 7.5 4 10.8 5.3 11.1 4.4.2-.7.7-2.7 1.1-4.3.3-1.7 1.7-7.3 3.1-12.5 10.1-37.4 26.4-73 48-105.3 2.9-4.2 5-7.7 4.6-7.6-.4.1-4.3 2.2-8.7 4.8zM776 524.7c-1.2 1.5-3.8 4.6-5.9 6.8-11.4 12.4-28.7 37.7-38.6 56.9-8.9 17.1-12 24.8-21.4 52.8-.5 1.5-.7 2.9-.5 3.1.7.6 28.6-5.7 40.4-9.2 15.3-4.4 41.4-14.3 46.6-17.6 1.9-1.2 2-1.8 1.2-7.7-1.6-12.5-2.7-18.1-5.8-31.3-1.2-5-2.4-10-2.6-11.3-.3-1.2-1.4-6.2-2.5-11-2.7-11.2-2.4-10-5-22.2-1.2-5.8-2.5-10.9-2.9-11.3-.4-.5-1.7.4-3 2zM738.2 758.5c-4.7 2.2-24.1 9.6-30.2 11.5-23.3 7.4-44.5 12.2-68.5 15.4-14.8 2.1-28.1 2.9-46 3-14.5 0-38.2-1-40.8-1.9-.6-.2-4-.6-7.4-1-3.5-.3-7.1-.8-8-1.2-4.1-1.3 3.1 3 10.5 6.4 57.5 26.2 124.3 19.2 177.1-18.8 8.7-6.3 20.3-15.9 19.1-15.9-.3 0-2.9 1.1-5.8 2.5z"/></svg>