<svg width="2186" height="1473" viewBox="0 0 2186 1473" fill="none" xmlns="http://www.w3.org/2000/svg">
<path d="M582.307 744.449C666.807 819.697 1014.25 864.193 1298.31 895.199C1610.82 929.311 2103.31 895.199 2103.31 895.199L2185.56 1472.45C2185.56 1472.45 1638.81 1459.95 1512.56 1454.2C1386.31 1448.45 360.133 1400.47 111.557 1050.2C56.5571 972.697 27.8071 938.697 5.05708 833.197C-20.061 716.715 56.5571 532.449 56.5571 532.449C56.5571 532.449 74.3071 439.947 165.168 354.447C261.246 264.039 350.807 226.697 453.057 209.948C600.853 185.738 727.557 224.198 820.557 169.698C880.807 134.39 971.647 42.9713 1019.31 15.9472C1043.56 2.19701 1088.81 -6.55253 1135.31 6.19756C1157.91 12.395 1190.81 33.9486 1190.81 33.9486C1190.81 33.9486 1142.85 21.698 1123.81 21.698C1080.31 21.698 1056.46 59.448 1043.56 75.198C996.262 132.948 983.307 232.698 880.807 314.698C807.877 373.042 675.807 391.091 629.057 412.198C582.307 433.305 497.307 485.449 495.057 557.698C492.807 629.947 497.807 669.2 582.307 744.449Z" fill="#392A58" fill-opacity="0.8"/>
</svg>
